<?xml version="1.0" standalone="no"?><!DOCTYPE svg PUBLIC "-//W3C//DTD SVG 1.1//EN" "http://www.w3.org/Graphics/SVG/1.1/DTD/svg11.dtd"><svg t="1690728427177" class="icon" viewBox="0 0 1024 1024" version="1.1" xmlns="http://www.w3.org/2000/svg" p-id="2258" width="400" height="400" xmlns:xlink="http://www.w3.org/1999/xlink"><path d="M27.2 446.29l-4.26 39.76 27 12.77L15.84 523 0.22 618.1h58.22L84 446.29zM130.86 618.1H92.52c-4.26 0-8.52-4.26-7.1-8.52l24.14-156.19c0-4.26 4.26-7.1 7.1-7.1h127.79s28.4-1.42 27 38.34C270 517.28 260.07 589.7 257.23 611c0 4.26-4.26 7.1-7.1 7.1h-44c-4.26 0-8.52-4.26-8.52-8.52l12.76-112.18a8.18 8.18 0 0 0-8.52-8.51h-39.76A6.7 6.7 0 0 0 155 496l-18.46 116.42c1.42 2.84-1.42 5.68-5.68 5.68z m343.62-171.81H333.91s-41.18 12.78-45.44 46.85c-2.84 27 12.78 45.44 21.3 54a12.89 12.89 0 0 0 9.94 4.26h72.41c2.84 0 4.26 2.84 4.26 4.26v21.3a6.11 6.11 0 0 1-5.67 5.68H287.05L280 616.68h136.26s46.86-7.1 46.86-55.38c0-45.44-36.92-46.86-36.92-46.86L363.73 513a9.71 9.71 0 0 1-9.94-9.94v-9.94a15.76 15.76 0 0 1 15.62-15.61h98l7.1-31.24z m200.21 34.08c-4.26-31.24-32.69-34.08-32.69-34.08H497.2l-7.1 34.08 29.82 22.71-34.08 17-25.56 180.38 59.64-22.72 4.26-59.64h93.72c28.39-11.36 35.49-28.4 39.75-34.08s19.88-72.42 17-103.65z m-88 100.81h-45.47c-4.26 0-8.52-4.26-7.1-8.52l14.2-83.77c0-4.26 4.26-7.1 8.52-7.1H608c2.84 0 5.68 2.84 5.68 7.1-2.84 49.69-11.36 76.67-17 86.61-1.42 2.84-5.68 5.68-9.94 5.68z m115-134.89l-19.9 126.37s-7.1 44 36.92 44c44 1.42 129.22 0 129.22 0l25.56-171.81h-54l-21.3 134.89h-55.34l15.62-134.89h-56.8z m322.33 0h-90.9s-27 8.52-41.17 41.18L873.49 618.1h54l19.88-120.7c1.42-7.09 7.1-14.19 12.78-15.61 14.2-4.26 18.46-1.42 44-1.42z" p-id="2259" fill="#2c2c2c"></path></svg>